<svg xmlns="http://www.w3.org/2000/svg" width="79.999" height="80" viewBox="0 0 79.999 80">
  <g id="noun-cafe-1236928" transform="translate(-103.612 -49.418)">
    <path id="Path_6088" data-name="Path 6088" d="M180.118,189.8a1.849,1.849,0,0,1,1.534,1.331,44.629,44.629,0,0,1,1.96,13.156,42.414,42.414,0,0,1-13.353,31.392,6.645,6.645,0,0,1,1.762,1.028,2.97,2.97,0,0,1,0,4.717,6.87,6.87,0,0,1-1.9,1.089,26.836,26.836,0,0,1-5.511,1.451,104.9,104.9,0,0,1-17.33,1.27,104.57,104.57,0,0,1-17.3-1.27,27.205,27.205,0,0,1-5.54-1.451,6.717,6.717,0,0,1-1.875-1.089,2.97,2.97,0,0,1,0-4.717,6.359,6.359,0,0,1,1.591-.968,38.8,38.8,0,0,1-4.177-4.446,14.55,14.55,0,0,1-6.563-.423,12.06,12.06,0,0,1-8.268-8.075,41.592,41.592,0,0,1-1.449-14.4,39.6,39.6,0,0,1,.653-5.625,11.414,11.414,0,0,1,.54-1.935,3.726,3.726,0,0,1,.483-.877,1.918,1.918,0,0,1,1.505-.877h.029c.875-.059,2.8-.19,4.148-.272a44.13,44.13,0,0,1,1.62-7.682,1.831,1.831,0,0,1,1.733-1.331h65.514a1.63,1.63,0,0,1,.2,0Zm-1.534,3.871H115.768a40.474,40.474,0,0,0-1.336,7.984c-.053.886-.085,1.753-.085,2.631a39.563,39.563,0,0,0,6.08,21.322h.029c.273.431.572.859.881,1.3a34.773,34.773,0,0,0,7.131,7.53c.479-.1.983-.18,1.505-.272a104.578,104.578,0,0,1,17.3-1.27,104.83,104.83,0,0,1,17.33,1.27c.455.08.885.156,1.307.242,8.484-6.61,14.063-17.624,14.063-30.122a40.619,40.619,0,0,0-1.392-10.615Zm-67.843,9.042c-.989.061-1.8.125-2.67.182-.055.2-.114.42-.171.7a36.953,36.953,0,0,0-.568,5.051,38.718,38.718,0,0,0,1.25,12.884,8.006,8.006,0,0,0,5.8,5.625,11.524,11.524,0,0,0,2.926.423,43.657,43.657,0,0,1-6.591-23.287c0-.537.009-1.052.029-1.573Z" transform="translate(0 -115.813)" fill-rule="evenodd"/>
    <path id="Path_6089" data-name="Path 6089" d="M352.281,49.418a1.958,1.958,0,0,1,1.5.692c2.172,2.489,3.081,4.784,2.824,6.879a8.782,8.782,0,0,1-2.447,4.642,7.848,7.848,0,0,0-1.786,2.742c-.163.738-.1,1.675,1.4,3.614h0a1.96,1.96,0,1,1-3.1,2.4c-1.916-2.48-2.566-4.846-2.12-6.859a10.15,10.15,0,0,1,2.615-4.419,5.823,5.823,0,0,0,1.555-2.595c.087-.706-.112-1.791-1.887-3.825a1.96,1.96,0,0,1,1.453-3.269Z" transform="translate(-205.384 0)" fill-rule="evenodd"/>
    <path id="Path_6090" data-name="Path 6090" d="M411.282,95.491a1.96,1.96,0,0,1,1.381.509,5.534,5.534,0,0,1,2.2,4.331,5.753,5.753,0,0,1-1.453,3.227,6.967,6.967,0,0,0-.967,1.5c-.059.223-.18.247.442,1a1.96,1.96,0,1,1-3.016,2.5,5.224,5.224,0,0,1-1.214-4.506,7.719,7.719,0,0,1,1.629-2.856,3.938,3.938,0,0,0,.668-1.118c0-.06.081-.288-.883-1.138h0a1.96,1.96,0,0,1,1.213-3.446Z" transform="translate(-255.72 -38.011)" fill-rule="evenodd"/>
    <path id="Path_6091" data-name="Path 6091" d="M301.933,95.491a1.961,1.961,0,0,1,1.381.509,5.534,5.534,0,0,1,2.2,4.331,5.753,5.753,0,0,1-1.453,3.227,6.97,6.97,0,0,0-.967,1.5c-.059.223-.18.247.442,1h0a1.96,1.96,0,1,1-3.016,2.5,5.221,5.221,0,0,1-1.213-4.506,7.72,7.72,0,0,1,1.629-2.856,3.933,3.933,0,0,0,.668-1.118c0-.06.081-.288-.883-1.138h0a1.96,1.96,0,0,1,1.213-3.446Z" transform="translate(-164.014 -38.011)" fill-rule="evenodd"/>
  </g>
</svg>
