<svg xmlns="http://www.w3.org/2000/svg" width="223.22" height="223.222" viewBox="0 0 223.22 223.222">
  <g id="Group_955" data-name="Group 955" transform="translate(-610.184 -404.667)">
    <path id="Path_5905" data-name="Path 5905" d="M327.838,192.059l-61.516,61.516L238.55,225.8a10.462,10.462,0,1,0-14.8,14.8L258.8,275.638a10.038,10.038,0,0,0,14.535,0l68.783-68.783a10.342,10.342,0,0,0,0-14.8c-3.634-3.894-10.381-3.894-14.274,0Z" transform="translate(436.005 285.026)" fill="#ee3642"/>
    <path id="Path_5906" data-name="Path 5906" d="M232.011,39.2a111.611,111.611,0,1,0,106.42,145.613,10.343,10.343,0,1,0-19.726-6.23,91.38,91.38,0,1,1,4.153-27.773,10.382,10.382,0,0,0,20.763,0A111.767,111.767,0,0,0,232.009,39.2Z" transform="translate(489.784 365.469)" fill="#ee3642"/>
  </g>
</svg>
