<svg xmlns="http://www.w3.org/2000/svg" width="80" height="80" viewBox="0 0 80 80">
  <g id="noun-pray-1071849" transform="translate(-103.601 -39.196)">
    <path id="Path_6092" data-name="Path 6092" d="M140.646,39.2a4.616,4.616,0,0,0-1.449.2c-3.02.92-5.171,4.493-5.171,10.029a51.2,51.2,0,0,1-.511,9.128c-.3,1.439-.4,1.389-.909,1.8a9.917,9.917,0,0,0-2.7,2.936c-1.017,1.719-1.973,4.309-2.983,8.866-3.013,11.671-3.636,16.631-5.341,18.663-.854,1.017-2.11,1.7-4.716,2.5s-6.407,1.62-11.875,2.994A1.91,1.91,0,0,0,103.6,98.15l.171,19.186a1.912,1.912,0,0,0,1.818,1.86h27.955a1.912,1.912,0,0,0,1.818-1.86V111.7a8.857,8.857,0,0,0,5.738-1.6,11,11,0,0,0,2.5-2.326,11.033,11.033,0,0,0,2.5,2.326,8.86,8.86,0,0,0,5.739,1.6v5.639a1.912,1.912,0,0,0,1.818,1.86h27.955a1.912,1.912,0,0,0,1.818-1.86L183.6,98.15a1.91,1.91,0,0,0-1.392-1.831c-5.468-1.374-9.269-2.2-11.875-2.994s-3.863-1.483-4.716-2.5c-1.706-2.033-2.326-6.985-5.341-18.663-1.009-4.552-1.967-7.148-2.983-8.866a9.927,9.927,0,0,0-2.7-2.936c-.5-.413-.6-.363-.909-1.8a51.2,51.2,0,0,1-.511-9.128c0-5.536-2.15-9.109-5.171-10.029a4.578,4.578,0,0,0-4.4.959,4.593,4.593,0,0,0-2.954-1.163Zm0,3.692a.873.873,0,0,1,.54.261,2.4,2.4,0,0,1,.6,1.86v57.878a5.84,5.84,0,0,1-2.7,4.1c-4.383,2.112-8.722-.86-11.307-4.535-1.781-2.622-2.923-6.56-1.307-13.14,1.209-3.429,1.933-8.3,3.977-16.221v-.058c.965-4.364,1.889-6.642,2.585-7.82a5.582,5.582,0,0,1,1.847-1.948,6.8,6.8,0,0,0,2.188-3.9,52.005,52.005,0,0,0,.6-9.942c0-4.563,1.732-6.193,2.585-6.454a1.233,1.233,0,0,1,.4-.087Zm5.881,0a1.387,1.387,0,0,1,.426.087c.854.26,2.585,1.891,2.585,6.454a51.958,51.958,0,0,0,.6,9.942,6.791,6.791,0,0,0,2.188,3.9,5.574,5.574,0,0,1,1.847,1.948c.7,1.178,1.62,3.456,2.585,7.82v.058c2.04,7.9,2.773,12.765,3.977,16.192v.029c1.616,6.579.474,10.517-1.307,13.14-2.641,3.385-7.514,7.019-11.335,4.535a5.792,5.792,0,0,1-2.67-4.1V45.011a2.394,2.394,0,0,1,.6-1.86.806.806,0,0,1,.511-.261ZM122.1,95.126a16.7,16.7,0,0,0,2.7,9.448,17.444,17.444,0,0,0,6.932,5.755v5.146H107.378L107.236,99.6c4.673-1.156,8.077-1.936,10.682-2.732a18.307,18.307,0,0,0,4.176-1.744Zm43.012,0a18.291,18.291,0,0,0,4.176,1.744c2.6.8,5.981,1.576,10.654,2.732l-.142,15.872H155.476v-5.146a17.471,17.471,0,0,0,6.932-5.755,16.7,16.7,0,0,0,2.7-9.448Z" transform="translate(0 0)" fill-rule="evenodd"/>
  </g>
</svg>
