<svg xmlns="http://www.w3.org/2000/svg" width="80" height="72" viewBox="0 0 80 72">
  <g id="noun-wedding-3609979" transform="translate(-80.916 -31.818)">
    <path id="Path_6087" data-name="Path 6087" d="M160.786,53.334C159.63,40.868,150.607,31.82,139.315,31.82a21.766,21.766,0,0,0-10.831,2.953,21.085,21.085,0,0,0-7.794,7.909,20.688,20.688,0,0,0-18.172-10.864c-11.291,0-20.314,9.046-21.471,21.515a21.52,21.52,0,0,0,.681,8.167A35.1,35.1,0,0,0,92.8,79.517l27.114,24.008a1.178,1.178,0,0,0,1.546.007l27.582-24.014A35.1,35.1,0,0,0,160.1,61.5a21.555,21.555,0,0,0,.681-8.166ZM106.263,80.909a1.146,1.146,0,0,0-1.156-1.048h-2.479l2.673-8.924a3.216,3.216,0,0,0-.149-2.272,3.331,3.331,0,0,0-1.625-1.633l-.13-.06h0a1.014,1.014,0,0,1-.6-.917V58.423a3.274,3.274,0,0,1,1-2.34,3.441,3.441,0,0,1,2.4-.971h7.458a3.44,3.44,0,0,1,2.4.971,3.274,3.274,0,0,1,1,2.34v7.634a1.017,1.017,0,0,1-.6.916l-.127.057h0a3.327,3.327,0,0,0-1.624,1.626,3.212,3.212,0,0,0-.156,2.266l2.676,8.935h-2.482a1.144,1.144,0,0,0-1.156,1.087l-.511,13.478L106.836,88.9a.661.661,0,0,0,0-.107Zm21.988.039a1.144,1.144,0,0,0-1.156-1.087h-2.481l2.673-8.924a3.213,3.213,0,0,0-.15-2.272,3.329,3.329,0,0,0-1.625-1.633l-.13-.06h0a1.015,1.015,0,0,1-.6-.917V58.423a3.274,3.274,0,0,1,1-2.34,3.44,3.44,0,0,1,2.4-.971h7.458a3.44,3.44,0,0,1,2.4.971,3.274,3.274,0,0,1,1,2.34v7.634a1.014,1.014,0,0,1-.6.917l-.127.057h0a3.328,3.328,0,0,0-1.624,1.627,3.217,3.217,0,0,0-.156,2.266l2.677,8.935h-2.48a1.146,1.146,0,0,0-1.153,1.048L135,88.712l-6.248,5.44Zm29.6-19.964a32.861,32.861,0,0,1-10.363,16.857l-10.015,8.719.325-4.443h2.949a1.167,1.167,0,0,0,.925-.451,1.106,1.106,0,0,0,.185-.993l-3.114-10.39a1.011,1.011,0,0,1,.552-1.211l.128-.06h0a3.34,3.34,0,0,0,1.4-1.209,3.225,3.225,0,0,0,.523-1.749V58.422a5.505,5.505,0,0,0-1.674-3.935,5.784,5.784,0,0,0-4.032-1.632h-1.728a5.173,5.173,0,0,0,3.074-3.409,5.029,5.029,0,0,0-.9-4.454,5.336,5.336,0,0,0-8.344,0,5.029,5.029,0,0,0-.9,4.454,5.173,5.173,0,0,0,3.074,3.409h-1.728a5.784,5.784,0,0,0-4.032,1.632,5.505,5.505,0,0,0-1.674,3.935v7.634A3.227,3.227,0,0,0,123,67.8a3.342,3.342,0,0,0,1.4,1.208l.13.061h0a1.014,1.014,0,0,1,.548,1.221l-3.11,10.379h0a1.106,1.106,0,0,0,.185.993,1.166,1.166,0,0,0,.925.451h2.91l.531,13.99-5.82,5.065L115.3,96.395a1.092,1.092,0,0,0,.02-.143l.537-14.135h2.91a1.166,1.166,0,0,0,.925-.451,1.106,1.106,0,0,0,.185-.993l-3.113-10.39a1.011,1.011,0,0,1,.552-1.211l.127-.059h0a3.349,3.349,0,0,0,1.4-1.208,3.229,3.229,0,0,0,.523-1.749V58.422a5.5,5.5,0,0,0-1.674-3.935,5.784,5.784,0,0,0-4.032-1.632h-1.728A5.171,5.171,0,0,0,115,49.446a5.033,5.033,0,0,0-.9-4.454,5.336,5.336,0,0,0-8.345,0,5.033,5.033,0,0,0-.9,4.454,5.171,5.171,0,0,0,3.073,3.408h-1.728a5.784,5.784,0,0,0-4.032,1.632,5.505,5.505,0,0,0-1.674,3.935v7.634a3.228,3.228,0,0,0,.522,1.748,3.343,3.343,0,0,0,1.4,1.209l.131.061h0a1.013,1.013,0,0,1,.547,1.221l-3.11,10.379h0a1.106,1.106,0,0,0,.185.993,1.167,1.167,0,0,0,.925.451h2.948l.337,4.6-10.02-8.873a32.86,32.86,0,0,1-10.37-16.864,19.443,19.443,0,0,1-.649-7.288,1.066,1.066,0,0,0,.017-.113c1.028-11.3,9.091-19.506,19.171-19.506A18.593,18.593,0,0,1,119.62,45.7a1.168,1.168,0,0,0,2.131,0,18.794,18.794,0,0,1,6.981-8.4,19.5,19.5,0,0,1,10.584-3.225c10.08,0,18.142,8.2,19.171,19.5,0,.035.009.075.016.109a19.417,19.417,0,0,1-.648,7.294Zm-25.944-10a2.982,2.982,0,0,1-2.082-.841,2.823,2.823,0,0,1,0-4.062,3,3,0,0,1,4.163,0,2.82,2.82,0,0,1,0,4.06,2.988,2.988,0,0,1-2.08.843Zm-21.987,0h0a2.984,2.984,0,0,1-2.082-.842,2.824,2.824,0,0,1,0-4.062,3,3,0,0,1,4.163,0,2.82,2.82,0,0,1,0,4.061,2.985,2.985,0,0,1-2.08.843Z" transform="translate(0 0)"/>
  </g>
</svg>
